<?xml version="1.0" encoding="utf-8"?>
<!-- Generator: Adobe Illustrator 16.0.0, SVG Export Plug-In . SVG Version: 6.00 Build 0)  -->
<!DOCTYPE svg PUBLIC "-//W3C//DTD SVG 1.1//EN" "http://www.w3.org/Graphics/SVG/1.1/DTD/svg11.dtd">
<svg version="1.1" id="Layer_2" xmlns="http://www.w3.org/2000/svg" xmlns:xlink="http://www.w3.org/1999/xlink" x="0px" y="0px"
	 width="960px" height="680px" viewBox="0 0 960 680" enable-background="new 0 0 960 680" xml:space="preserve">
<polygon fill="#E6E6E6" points="960.5,681.5 0.5,681.5 0.5,1.5 713.634,1.5 960.5,1.5 "/>
<path fill="#B3B3B3" stroke="#4D4D4D" stroke-width="4" stroke-miterlimit="10" d="M714.5-1.5"/>
<path fill="#B3B3B3" stroke="#4D4D4D" stroke-width="4" stroke-miterlimit="10" d="M-5.5-1.5"/>
<polyline fill="none" stroke="#808080" stroke-width="4" stroke-miterlimit="10" points="292.5,300.5 302.5,434.5 453.5,440.5 
	607.5,457.5 778.728,2.322 "/>
<polyline fill="none" stroke="#808080" stroke-width="4" stroke-miterlimit="10" points="924.521,2.322 734.5,472.5 607.5,457.5 "/>
<polyline fill="none" stroke="#808080" stroke-width="4" stroke-miterlimit="10" points="646.5,680.5 707.641,536.399 734.5,472.5 
	"/>
<line fill="none" stroke="#808080" stroke-width="4" stroke-miterlimit="10" x1="960.5" y1="632.221" x2="705.641" y2="537.399"/>
<line fill="none" stroke="#808080" stroke-width="4" stroke-miterlimit="10" x1="850.5" y1="681.846" x2="960" y2="395.523"/>
<line fill="none" stroke="#808080" stroke-width="4" stroke-miterlimit="10" x1="826.926" y1="245.267" x2="960" y2="296.523"/>
<line fill="none" stroke="#808080" stroke-width="4" stroke-miterlimit="10" x1="900.5" y1="387.5" x2="960.5" y2="412.173"/>
<line fill="none" stroke="#808080" stroke-width="4" stroke-miterlimit="10" x1="867.5" y1="472.5" x2="960.5" y2="506.717"/>
<polyline fill="none" stroke="#808080" stroke-width="4" stroke-miterlimit="10" points="211.5,434.5 302.5,434.5 321.5,679.5 "/>
<path fill="none" stroke="#808080" stroke-width="4" stroke-miterlimit="10" d="M1,434.5l183.5,6c0,0,31,9,27-22l-10-148l15-268"/>
<line fill="none" stroke="#808080" stroke-width="4" stroke-miterlimit="10" x1="1" y1="273.5" x2="201.5" y2="270.5"/>
<line fill="none" stroke="#808080" stroke-width="4" stroke-miterlimit="10" x1="0.5" y1="131.5" x2="209.5" y2="131.5"/>
<line fill="none" stroke="#808080" stroke-width="4" stroke-miterlimit="10" x1="55.5" y1="1" x2="49.5" y2="131.5"/>
<line fill="none" stroke="#808080" stroke-width="4" stroke-miterlimit="10" x1="28.5" y1="434.5" x2="28.5" y2="680.5"/>
<line fill="none" stroke="#808080" stroke-width="4" stroke-miterlimit="10" x1="0.5" y1="567.5" x2="229.5" y2="558.5"/>
<path fill="none" stroke="#808080" stroke-width="4" stroke-miterlimit="10" d="M626.434,407.5c-6.934,1-152.934-41-152.934-41
	c-19,43-20,74-20,74l5,241.346"/>
<path fill="none" stroke="#808080" stroke-width="4" stroke-miterlimit="10" d="M451.5,2.322l-31,201.178l-13,95c0,0-9,35,21,50
	c10.837,5.419,45,18,45,18"/>
<polyline fill="none" stroke="#808080" stroke-width="4" stroke-miterlimit="10" points="443.112,51.146 690.498,153.664 
	718.206,165.146 "/>
<path fill="none" stroke="#808080" stroke-width="4" stroke-miterlimit="10" d="M684.056,255.332c0,0-38.384-6.778-28.556-27.582
	l34.998-74.086"/>
<line fill="none" stroke="#808080" stroke-width="4" stroke-miterlimit="10" x1="321.5" y1="204.498" x2="420.5" y2="203.5"/>
<path fill="none" stroke="#808080" stroke-width="4" stroke-miterlimit="10" d="M572.5,577.173c0,0,11-18.673,35-18.673
	s86.926,9.336,86.926,9.336"/>
<line fill="none" stroke="#808080" stroke-width="4" stroke-miterlimit="10" x1="586.5" y1="664.5" x2="651.812" y2="669.211"/>
<circle fill="#8CC63F" stroke="#000000" stroke-width="4" stroke-miterlimit="10" cx="62.664" cy="435.336" r="19.164"/>
<circle fill="#8CC63F" stroke="#000000" stroke-width="4" stroke-miterlimit="10" cx="807.664" cy="577.336" r="19.164"/>
<g>
	<path d="M34.204,390.322h2.928v7.441h0.072c0.384-0.624,0.792-1.2,1.176-1.753l4.225-5.688h3.648l-5.569,6.889l5.929,9.289h-3.457
		l-4.584-7.417l-1.44,1.729v5.688h-2.928V390.322z"/>
	<path d="M61.902,398.243c0,5.425-3.289,8.521-7.753,8.521c-4.561,0-7.44-3.479-7.44-8.232c0-4.969,3.12-8.473,7.681-8.473
		C59.117,390.059,61.902,393.635,61.902,398.243z M49.829,398.483c0,3.288,1.656,5.904,4.488,5.904c2.856,0,4.464-2.64,4.464-6.024
		c0-3.048-1.512-5.929-4.464-5.929C51.389,392.435,49.829,395.147,49.829,398.483z"/>
	<path d="M64.444,390.539c1.056-0.192,2.521-0.337,4.512-0.337c2.161,0,3.745,0.456,4.777,1.32c0.96,0.792,1.584,2.064,1.584,3.576
		c0,1.536-0.48,2.809-1.392,3.673c-1.176,1.176-3.024,1.728-5.112,1.728c-0.552,0-1.056-0.023-1.44-0.096v6.097h-2.928V390.539z
		 M67.373,398.075c0.36,0.096,0.84,0.12,1.44,0.12c2.208,0,3.552-1.08,3.552-2.977c0-1.8-1.248-2.76-3.289-2.76
		c-0.816,0-1.392,0.072-1.704,0.144V398.075z"/>
	<path d="M77.86,390.322h2.952v13.705h6.649v2.473H77.86V390.322z"/>
	<path d="M92.644,390.322V406.5h-2.952v-16.178H92.644z"/>
</g>
<g>
	<path d="M781.444,542.916l-1.392,4.584h-3.049l5.185-16.178h3.769l5.256,16.178h-3.168l-1.464-4.584H781.444z M786.076,540.684
		l-1.271-3.984c-0.313-0.984-0.576-2.088-0.816-3.024h-0.048c-0.239,0.937-0.479,2.064-0.769,3.024l-1.248,3.984H786.076z"/>
	<path d="M793.468,531.322h2.952v13.705h6.648v2.473h-9.601V531.322z"/>
	<path d="M808.636,542.916l-1.392,4.584h-3.049l5.185-16.178h3.769l5.256,16.178h-3.168l-1.464-4.584H808.636z M813.268,540.684
		l-1.271-3.984c-0.313-0.984-0.576-2.088-0.816-3.024h-0.048c-0.239,0.937-0.479,2.064-0.769,3.024l-1.248,3.984H813.268z"/>
	<path d="M820.588,544.284c0.959,0.552,2.399,1.031,3.912,1.031c1.896,0,2.951-0.888,2.951-2.208c0-1.224-0.815-1.944-2.879-2.688
		c-2.665-0.96-4.369-2.376-4.369-4.704c0-2.64,2.208-4.656,5.713-4.656c1.752,0,3.048,0.384,3.889,0.816l-0.721,2.376
		c-0.576-0.313-1.704-0.769-3.217-0.769c-1.871,0-2.688,1.009-2.688,1.944c0,1.248,0.936,1.824,3.096,2.664
		c2.809,1.057,4.177,2.473,4.177,4.801c0,2.592-1.968,4.849-6.145,4.849c-1.704,0-3.48-0.48-4.368-1.008L820.588,544.284z"/>
	<path d="M836.067,531.322V547.5h-2.952v-16.178H836.067z"/>
</g>
<path fill="#FFF2B4" stroke="#4D4D4D" stroke-width="2" stroke-miterlimit="10" d="M633.463,218.607l27.704-64.944l-18-9.164
	l-4.667,14.333l-31-9.333l4.333-14.667L569.167,119.5l-6.667,14.667l-7.333-2.667l-6.778,13l-8.594-6l8.594-27l-27.889-12l-3.333,12
	l-10.961-7.5l-11.039,27.5l-24.994-12l-16.836,48.667l36.415,14.083l-21.292,56.583l-38.777-14.694l-6.516,21.127l24.328,10.065
	L420.314,333.5l19.186,5.391V333.5l50,18.667v5.333l12.333,3.334l25.991-66.667L564.5,309.5l-20.223,57l28.223,11l21.333-54
	l-5.333-5.333l5.333-18.667l8,3.333l24.601-60.667L596.5,227.75l-15.841,48.417L527.824,259.5l20.564-50l-8.422-5.002l8.422-16.998
	L633.463,218.607z M494.301,338.479l-49.737-17.914l13.216-36.692l49.736,17.914L494.301,338.479z"/>
<g>
	<path d="M481.059,337.05l-2.345,8.45h-7.717l10.062-32.92h9.769l10.208,32.92h-8.01l-2.54-8.45H481.059z M489.411,331.482
		l-2.051-6.984c-0.586-1.954-1.172-4.396-1.661-6.35h-0.098c-0.488,1.954-0.977,4.445-1.514,6.35l-1.954,6.984H489.411z"/>
</g>
<g>
	<path d="M566.391,281.352c1.953-0.391,5.91-0.684,9.622-0.684c4.542,0,7.327,0.439,9.72,1.856c2.296,1.221,3.956,3.468,3.956,6.447
		c0,2.931-1.709,5.666-5.421,7.034v0.098c3.761,1.025,6.545,3.858,6.545,8.108c0,2.979-1.368,5.324-3.419,6.984
		c-2.394,1.905-6.399,2.979-12.944,2.979c-3.662,0-6.398-0.244-8.059-0.488V281.352z M573.766,293.954h2.442
		c3.907,0,6.008-1.612,6.008-4.054c0-2.491-1.905-3.81-5.274-3.81c-1.612,0-2.541,0.098-3.176,0.195V293.954z M573.766,308.558
		c0.732,0.098,1.612,0.098,2.883,0.098c3.369,0,6.35-1.27,6.35-4.738c0-3.321-2.98-4.64-6.692-4.64h-2.54V308.558z"/>
</g>
<g>
	<path d="M637.901,198.572c-1.368,0.684-4.444,1.416-8.45,1.416c-11.381,0-17.242-7.082-17.242-16.46
		c0-11.234,8.011-17.486,17.975-17.486c3.859,0,6.789,0.781,8.108,1.465l-1.515,5.91c-1.514-0.635-3.614-1.221-6.252-1.221
		c-5.91,0-10.501,3.565-10.501,10.892c0,6.594,3.907,10.745,10.55,10.745c2.247,0,4.738-0.488,6.203-1.074L637.901,198.572z"/>
</g>
</svg>
