<?xml version="1.0" encoding="utf-8"?>
<!-- Generator: Adobe Illustrator 16.0.0, SVG Export Plug-In . SVG Version: 6.00 Build 0)  -->
<!DOCTYPE svg PUBLIC "-//W3C//DTD SVG 1.1//EN" "http://www.w3.org/Graphics/SVG/1.1/DTD/svg11.dtd">
<svg version="1.1" id="Layer_2" xmlns="http://www.w3.org/2000/svg" xmlns:xlink="http://www.w3.org/1999/xlink" x="0px" y="0px"
	 width="963px" height="800px" viewBox="0 0 963 800" enable-background="new 0 0 963 800" xml:space="preserve">
<polygon fill="#E6E6E6" points="963,801 0,801 0,1 715.733,1 963,1 "/>
<path display="none" fill="#B3B3B3" stroke="#4D4D4D" stroke-width="4" stroke-miterlimit="10" d="M714-2"/>
<path display="none" fill="#B3B3B3" stroke="#4D4D4D" stroke-width="4" stroke-miterlimit="10" d="M-6-2"/>
<polyline fill="none" stroke="#808080" stroke-width="4" stroke-miterlimit="10" points="292,347 302,481 453,487 607,504 796,-0.5 
	"/>
<polyline fill="none" stroke="#808080" stroke-width="4" stroke-miterlimit="10" points="944,-0.5 734,519 607,504 "/>
<polyline fill="none" stroke="#808080" stroke-width="4" stroke-miterlimit="10" points="614,800.5 707.141,582.899 734,519 "/>
<line fill="none" stroke="#808080" stroke-width="4" stroke-miterlimit="10" x1="963.5" y1="676" x2="705.141" y2="583.899"/>
<line fill="none" stroke="#808080" stroke-width="4" stroke-miterlimit="10" x1="822" y1="800.5" x2="963.5" y2="430"/>
<line fill="none" stroke="#808080" stroke-width="4" stroke-miterlimit="10" x1="826.327" y1="290.551" x2="966.5" y2="344.023"/>
<line fill="none" stroke="#808080" stroke-width="4" stroke-miterlimit="10" x1="900" y1="434" x2="966.5" y2="462.673"/>
<line fill="none" stroke="#808080" stroke-width="4" stroke-miterlimit="10" x1="867" y1="519" x2="966.5" y2="553.217"/>
<polyline fill="none" stroke="#808080" stroke-width="4" stroke-miterlimit="10" points="211,481 302,481 329,800.5 "/>
<path fill="none" stroke="#808080" stroke-width="4" stroke-miterlimit="10" d="M0.5,481l183.5,6c0,0,31,9,27-22l-10-148L220-0.5"/>
<line fill="none" stroke="#808080" stroke-width="4" stroke-miterlimit="10" x1="0.5" y1="320" x2="201" y2="317"/>
<line fill="none" stroke="#808080" stroke-width="4" stroke-miterlimit="10" x1="0" y1="178" x2="209" y2="178"/>
<line fill="none" stroke="#808080" stroke-width="4" stroke-miterlimit="10" x1="55" y1="-0.5" x2="49" y2="178"/>
<line fill="none" stroke="#808080" stroke-width="4" stroke-miterlimit="10" x1="28" y1="481" x2="28" y2="801"/>
<line fill="none" stroke="#808080" stroke-width="4" stroke-miterlimit="10" x1="0" y1="614" x2="229" y2="605"/>
<path fill="none" stroke="#808080" stroke-width="4" stroke-miterlimit="10" d="M625.934,454C619,455,473,413,473,413
	c-19,43-20,74-20,74l6,313.5"/>
<path fill="none" stroke="#808080" stroke-width="4" stroke-miterlimit="10" d="M459-0.5L420,250l-13,95c0,0-9,35,21,50
	c10.837,5.419,45,18,45,18"/>
<polyline fill="none" stroke="#808080" stroke-width="4" stroke-miterlimit="10" points="442.612,97.646 689.998,200.164 
	717.706,211.646 "/>
<path fill="none" stroke="#808080" stroke-width="4" stroke-miterlimit="10" d="M683.556,301.832c0,0-38.384-6.778-28.556-27.582
	l34.998-74.086"/>
<line fill="none" stroke="#808080" stroke-width="4" stroke-miterlimit="10" x1="321" y1="250.998" x2="420" y2="250"/>
<path fill="none" stroke="#808080" stroke-width="4" stroke-miterlimit="10" d="M572,623.673c0,0,11-18.673,35-18.673
	s86.926,9.336,86.926,9.336"/>
<line fill="none" stroke="#808080" stroke-width="4" stroke-miterlimit="10" x1="586" y1="711" x2="651.312" y2="715.711"/>
<circle fill="#8CC63F" stroke="#000000" stroke-width="4" stroke-miterlimit="10" cx="62.164" cy="481.836" r="19.164"/>
<circle fill="#8CC63F" stroke="#000000" stroke-width="4" stroke-miterlimit="10" cx="807.164" cy="623.836" r="19.164"/>
<text transform="matrix(1 0 0 1 32 453)" font-family="'Arial'" font-weight="600" font-size="24">KOPLI</text>
<text transform="matrix(1 0 0 1 776 594)" font-family="'Arial'" font-weight="600" font-size="24">ALASI</text>
<path fill="#FFF2B4" stroke="#4D4D4D" stroke-width="2" stroke-miterlimit="10" d="M632.963,265.107l27.704-64.944l-18-9.164
	L638,205.333L607,196l4.333-14.667L568.667,166L562,180.667L554.667,178l-6.778,13l-8.594-6l8.594-27L520,146l-3.333,12l-10.961-7.5
	L494.667,178l-24.994-12l-16.836,48.667l36.415,14.083l-21.292,56.583l-38.777-14.694l-6.516,21.127l24.328,10.065L419.814,380
	L439,385.391V380l50,18.667V404l12.333,3.334l25.991-66.667L564,356l-20.223,57L572,424l21.333-54L588,364.667L593.333,346l8,3.334
	l24.601-60.667L596,274.25l-15.841,48.417L527.324,306l20.564-50l-8.422-5.002L547.889,234L632.963,265.107z M493.801,384.979
	l-49.737-17.914l13.216-36.691l49.736,17.913L493.801,384.979z"/>
<text transform="matrix(1 0 0 1 469.667 392)" font-family="'Arial'" font-weight="600" font-size="48.8391">A</text>
<text transform="matrix(1 0 0 1 562.667 360.333)" font-family="'Arial'" font-weight="600" font-size="48.8391">B</text>
<text transform="matrix(1 0 0 1 610 246)" font-family="'Arial'" font-weight="600" font-size="48.8391">C</text>
</svg>
