<?xml version="1.0" encoding="utf-8"?>
<!-- Generator: Adobe Illustrator 16.0.0, SVG Export Plug-In . SVG Version: 6.00 Build 0)  -->
<!DOCTYPE svg PUBLIC "-//W3C//DTD SVG 1.1//EN" "http://www.w3.org/Graphics/SVG/1.1/DTD/svg11.dtd">
<svg version="1.1" id="Layer_1" xmlns="http://www.w3.org/2000/svg" xmlns:xlink="http://www.w3.org/1999/xlink" x="0px" y="0px"
	 width="373.838px" height="337px" viewBox="0 0 373.838 337" enable-background="new 0 0 373.838 337" xml:space="preserve">
<g id="gray" display="none">
	<path display="inline" fill="#B3B3B3" d="M115.788,335c-13.75,0-30.625-9.743-37.5-21.65L7.156,190.15
		c-6.875-11.908-6.875-31.393,0-43.301L78.287,23.65C85.163,11.743,102.038,2,115.788,2H258.05c13.75,0,30.625,9.743,37.5,21.65
		l71.131,123.199c6.875,11.908,6.875,31.393,0,43.301L295.551,313.35c-6.875,11.907-23.75,21.65-37.5,21.65H115.788z"/>
</g>
<g id="blue_1_" display="none">
	<path display="inline" fill="#00AEEF" d="M115.788,335c-13.75,0-30.625-9.743-37.5-21.65L7.156,190.15
		c-6.875-11.908-6.875-31.393,0-43.301L78.287,23.65C85.163,11.743,102.038,2,115.788,2H258.05c13.75,0,30.625,9.743,37.5,21.65
		l71.131,123.199c6.875,11.908,6.875,31.393,0,43.301L295.551,313.35c-6.875,11.907-23.75,21.65-37.5,21.65H115.788z"/>
</g>
<g id="black_blue" display="none">
	<path display="inline" d="M115.788,335c-13.75,0-30.625-9.743-37.5-21.65L7.156,190.15c-6.875-11.908-6.875-31.393,0-43.301
		L78.287,23.65C85.163,11.743,102.038,2,115.788,2H258.05c13.75,0,30.625,9.743,37.5,21.65l71.131,123.199
		c6.875,11.908,6.875,31.393,0,43.301L295.551,313.35c-6.875,11.907-23.75,21.65-37.5,21.65H115.788z"/>
	<path display="inline" fill="none" stroke="#00AEEF" stroke-width="4" stroke-miterlimit="10" d="M115.788,335
		c-13.75,0-30.625-9.743-37.5-21.65L7.156,190.15c-6.875-11.908-6.875-31.393,0-43.301L78.287,23.65
		C85.163,11.743,102.038,2,115.788,2H258.05c13.75,0,30.625,9.743,37.5,21.65l71.131,123.199c6.875,11.908,6.875,31.393,0,43.301
		L295.551,313.35c-6.875,11.907-23.75,21.65-37.5,21.65H115.788z"/>
</g>
<g id="black_yellow">
	<path d="M115.788,335c-13.75,0-30.625-9.743-37.5-21.65L7.156,190.15c-6.875-11.908-6.875-31.393,0-43.301L78.287,23.65
		C85.163,11.743,102.038,2,115.788,2H258.05c13.75,0,30.625,9.743,37.5,21.65l71.131,123.199c6.875,11.908,6.875,31.393,0,43.301
		L295.551,313.35c-6.875,11.907-23.75,21.65-37.5,21.65H115.788z"/>
	<path fill="none" stroke="#FEDB00" stroke-width="4" stroke-miterlimit="10" d="M115.788,335c-13.75,0-30.625-9.743-37.5-21.65
		L7.156,190.15c-6.875-11.908-6.875-31.393,0-43.301L78.287,23.65C85.163,11.743,102.038,2,115.788,2H258.05
		c13.75,0,30.625,9.743,37.5,21.65l71.131,123.199c6.875,11.908,6.875,31.393,0,43.301L295.551,313.35
		c-6.875,11.907-23.75,21.65-37.5,21.65H115.788z"/>
</g>
</svg>
