<?xml version="1.0" encoding="utf-8"?>
<!-- Generator: Adobe Illustrator 16.0.0, SVG Export Plug-In . SVG Version: 6.00 Build 0)  -->
<!DOCTYPE svg PUBLIC "-//W3C//DTD SVG 1.1//EN" "http://www.w3.org/Graphics/SVG/1.1/DTD/svg11.dtd">
<svg version="1.1" xmlns="http://www.w3.org/2000/svg" xmlns:xlink="http://www.w3.org/1999/xlink" x="0px" y="0px" width="333px"
	 height="369.838px" viewBox="0 0 333 369.838" enable-background="new 0 0 333 369.838" xml:space="preserve">
<g id="Layer_1" display="none">
	<g id="gray" display="inline">
		<path fill="#B3B3B3" d="M95.869,351.419c-13.75,0-30.625-9.743-37.5-21.65l-71.131-123.199c-6.875-11.908-6.875-31.393,0-43.301
			L58.368,40.069c6.875-11.908,23.75-21.65,37.5-21.65h142.263c13.75,0,30.625,9.743,37.5,21.65l71.131,123.199
			c6.875,11.908,6.875,31.393,0,43.301l-71.131,123.199c-6.875,11.907-23.75,21.65-37.5,21.65H95.869z"/>
	</g>
	<g id="blue_1_" display="inline">
		<path fill="#00AEEF" d="M95.869,351.419c-13.75,0-30.625-9.743-37.5-21.65l-71.131-123.199c-6.875-11.908-6.875-31.393,0-43.301
			L58.368,40.069c6.875-11.908,23.75-21.65,37.5-21.65h142.263c13.75,0,30.625,9.743,37.5,21.65l71.131,123.199
			c6.875,11.908,6.875,31.393,0,43.301l-71.131,123.199c-6.875,11.907-23.75,21.65-37.5,21.65H95.869z"/>
	</g>
	<g id="black_blue" display="inline">
		<path d="M95.869,351.419c-13.75,0-30.625-9.743-37.5-21.65l-71.131-123.199c-6.875-11.908-6.875-31.393,0-43.301L58.368,40.069
			c6.875-11.908,23.75-21.65,37.5-21.65h142.263c13.75,0,30.625,9.743,37.5,21.65l71.131,123.199
			c6.875,11.908,6.875,31.393,0,43.301l-71.131,123.199c-6.875,11.907-23.75,21.65-37.5,21.65H95.869z"/>
		<path fill="none" stroke="#00AEEF" stroke-width="4" stroke-miterlimit="10" d="M95.869,351.419c-13.75,0-30.625-9.743-37.5-21.65
			l-71.131-123.199c-6.875-11.908-6.875-31.393,0-43.301L58.368,40.069c6.875-11.908,23.75-21.65,37.5-21.65h142.263
			c13.75,0,30.625,9.743,37.5,21.65l71.131,123.199c6.875,11.908,6.875,31.393,0,43.301l-71.131,123.199
			c-6.875,11.907-23.75,21.65-37.5,21.65H95.869z"/>
	</g>
	<g id="black_yellow" display="inline">
		<path d="M95.869,351.419c-13.75,0-30.625-9.743-37.5-21.65l-71.131-123.199c-6.875-11.908-6.875-31.393,0-43.301L58.368,40.069
			c6.875-11.908,23.75-21.65,37.5-21.65h142.263c13.75,0,30.625,9.743,37.5,21.65l71.131,123.199
			c6.875,11.908,6.875,31.393,0,43.301l-71.131,123.199c-6.875,11.907-23.75,21.65-37.5,21.65H95.869z"/>
		<path fill="none" stroke="#FEDB00" stroke-width="4" stroke-miterlimit="10" d="M95.869,351.419c-13.75,0-30.625-9.743-37.5-21.65
			l-71.131-123.199c-6.875-11.908-6.875-31.393,0-43.301L58.368,40.069c6.875-11.908,23.75-21.65,37.5-21.65h142.263
			c13.75,0,30.625,9.743,37.5,21.65l71.131,123.199c6.875,11.908,6.875,31.393,0,43.301l-71.131,123.199
			c-6.875,11.907-23.75,21.65-37.5,21.65H95.869z"/>
	</g>
</g>
<g id="Layer_2">
	<g id="gray_1_">
		<path fill="#B3B3B3" d="M333,256.05c0,13.75-9.493,30.625-21.4,37.5l-123.074,71.131c-11.908,6.875-31.331,6.875-43.238,0
			L21.869,293.551C9.961,286.675,0,269.8,0,256.05V113.788c0-13.75,9.993-30.625,21.9-37.5l123.324-71.13
			c11.908-6.875,31.456-6.875,43.363,0l122.98,71.13c11.908,6.875,21.432,23.75,21.432,37.5V256.05z"/>
	</g>
	<g id="blue_2_" display="none">
		<path display="inline" fill="#00AEEF" d="M333,256.05c0,13.75-9.493,30.625-21.4,37.5l-123.074,71.131
			c-11.908,6.875-31.331,6.875-43.238,0L21.869,293.551C9.961,286.675,0,269.8,0,256.05V113.788c0-13.75,9.993-30.625,21.9-37.5
			l123.324-71.13c11.908-6.875,31.456-6.875,43.363,0l122.98,71.13c11.908,6.875,21.432,23.75,21.432,37.5V256.05z"/>
	</g>
	<g id="black_blue_1_" display="none">
		<path display="inline" d="M333,256.05c0,13.75-9.493,30.625-21.4,37.5l-123.074,71.131c-11.908,6.875-31.331,6.875-43.238,0
			L21.869,293.551C9.961,286.675,0,269.8,0,256.05V113.788c0-13.75,9.993-30.625,21.9-37.5l123.324-71.13
			c11.908-6.875,31.456-6.875,43.363,0l122.98,71.13c11.908,6.875,21.432,23.75,21.432,37.5V256.05z"/>
		<path display="inline" fill="none" stroke="#00AEEF" stroke-width="4" stroke-miterlimit="10" d="M333,256.05
			c0,13.75-9.493,30.625-21.4,37.5l-123.074,71.131c-11.908,6.875-31.331,6.875-43.238,0L21.869,293.551
			C9.961,286.675,0,269.8,0,256.05V113.788c0-13.75,9.993-30.625,21.9-37.5l123.324-71.13c11.908-6.875,31.456-6.875,43.363,0
			l122.98,71.13c11.908,6.875,21.432,23.75,21.432,37.5V256.05z"/>
	</g>
	<g id="black_yellow_1_" display="none">
		<path display="inline" d="M333,256.05c0,13.75-9.493,30.625-21.4,37.5l-123.074,71.131c-11.908,6.875-31.331,6.875-43.238,0
			L21.869,293.551C9.961,286.675,0,269.8,0,256.05V113.788c0-13.75,9.993-30.625,21.9-37.5l123.324-71.13
			c11.908-6.875,31.456-6.875,43.363,0l122.98,71.13c11.908,6.875,21.432,23.75,21.432,37.5V256.05z"/>
		<path display="inline" fill="none" stroke="#FEDB00" stroke-width="4" stroke-miterlimit="10" d="M333,256.05
			c0,13.75-9.493,30.625-21.4,37.5l-123.074,71.131c-11.908,6.875-31.331,6.875-43.238,0L21.869,293.551
			C9.961,286.675,0,269.8,0,256.05V113.788c0-13.75,9.993-30.625,21.9-37.5l123.324-71.13c11.908-6.875,31.456-6.875,43.363,0
			l122.98,71.13c11.908,6.875,21.432,23.75,21.432,37.5V256.05z"/>
	</g>
</g>
</svg>
