<svg id="Layer_1" data-name="Layer 1" xmlns="http://www.w3.org/2000/svg" viewBox="0 0 72 80.2"><defs><style>.cls-1{fill:#00aaef;}</style></defs><title>Hexagon</title><path class="cls-1" d="M48,27.9a7.91,7.91,0,0,1,3.83.9L79.17,44.58A8.61,8.61,0,0,1,83,51.22V82.78a8.61,8.61,0,0,1-3.83,6.64L51.83,105.2a8.6,8.6,0,0,1-7.66,0L16.83,89.42A8.61,8.61,0,0,1,13,82.78V51.22a8.61,8.61,0,0,1,3.83-6.64L44.17,28.8A7.91,7.91,0,0,1,48,27.9m0-1a8.83,8.83,0,0,0-4.33,1L16.33,43.72A9.6,9.6,0,0,0,12,51.22V82.78a9.6,9.6,0,0,0,4.33,7.5l27.34,15.79a9.62,9.62,0,0,0,8.66,0L79.67,90.28A9.6,9.6,0,0,0,84,82.78V51.22a9.6,9.6,0,0,0-4.33-7.5L52.33,27.93a8.83,8.83,0,0,0-4.33-1Z" transform="translate(-12 -26.9)"/></svg>