<?xml version="1.0" encoding="utf-8"?>
<!-- Generator: Adobe Illustrator 16.0.0, SVG Export Plug-In . SVG Version: 6.00 Build 0)  -->
<!DOCTYPE svg PUBLIC "-//W3C//DTD SVG 1.1//EN" "http://www.w3.org/Graphics/SVG/1.1/DTD/svg11.dtd">
<svg version="1.1" xmlns="http://www.w3.org/2000/svg" xmlns:xlink="http://www.w3.org/1999/xlink" x="0px" y="0px" width="337px"
	 height="373.838px" viewBox="0 0 168.5 186,919" enable-background="new 0 0 168.5 186,919" xml:space="preserve">
<g id="Layer_2">
	<g id="black_blue_1_">
		<path d="M335,258.05c0,13.75-9.493,30.625-21.4,37.5l-123.074,71.131c-11.908,6.875-31.331,6.875-43.238,0L23.869,295.551
			C11.961,288.675,2,271.8,2,258.05V115.788c0-13.75,9.993-30.625,21.9-37.5l123.324-71.13c11.908-6.875,31.456-6.875,43.363,0
			l122.98,71.13c11.908,6.875,21.432,23.75,21.432,37.5V258.05z"/>
		<path fill="none" stroke="white" stroke-width="4" stroke-miterlimit="10" d="M335,258.05c0,13.75-9.493,30.625-21.4,37.5
			l-123.074,71.131c-11.908,6.875-31.331,6.875-43.238,0L23.869,295.551C11.961,288.675,2,271.8,2,258.05V115.788
			c0-13.75,9.993-30.625,21.9-37.5l123.324-71.13c11.908-6.875,31.456-6.875,43.363,0l122.98,71.13
			c11.908,6.875,21.432,23.75,21.432,37.5V258.05z"/>
	</g>
	
</g>
</svg>
